<svg width="128" height="128" viewBox="0 0 128 128" fill="none" xmlns="http://www.w3.org/2000/svg" role="img" aria-labelledby="title desc">
  <title id="title">CatCo Newsroom</title>
  <desc id="desc">Marca editorial circular com as letras C e N.</desc>
  <rect width="128" height="128" rx="8" fill="#070707"/>
  <rect x="10" y="10" width="108" height="108" fill="#fbfaf7"/>
  <rect x="18" y="18" width="92" height="92" fill="#070707"/>
  <path d="M35 83.5C28.8 78.5 25.5 72 25.5 64C25.5 55.8 28.8 49.2 35 44.3C41.1 39.3 48.6 36.8 57.4 36.8C63.6 36.8 69.1 38.1 73.8 40.8V53.2C69.7 49.7 64.6 48 58.5 48C52.7 48 48 49.5 44.5 52.6C41 55.6 39.2 59.4 39.2 64C39.2 68.5 41 72.3 44.5 75.4C48 78.5 52.7 80 58.5 80C64.7 80 70.1 78.1 74.7 74.2V86.7C69.8 89.9 63.8 91.5 56.7 91.5C48.1 91.5 41 88.8 35 83.5Z" fill="#fbfaf7"/>
  <path d="M78 37.8H91L105.5 90.2H92.6L90.1 80.6H77.7L75.2 90.2H62.7L78 37.8ZM87.8 70.8L84.1 55.2L80.2 70.8H87.8Z" fill="#c9191f"/>
  <rect x="18" y="102" width="92" height="8" fill="#c9191f"/>
</svg>
