<?xml version="1.0" standalone="no"?>
<!DOCTYPE svg PUBLIC "-//W3C//DTD SVG 20010904//EN"
 "http://www.w3.org/TR/2001/REC-SVG-20010904/DTD/svg10.dtd">
<svg version="1.0" xmlns="http://www.w3.org/2000/svg"
 width="500.000000pt" height="500.000000pt" viewBox="0 0 500.000000 500.000000"
 preserveAspectRatio="xMidYMid meet">

<g transform="translate(0.000000,500.000000) scale(0.100000,-0.100000)"
fill="#000000" stroke="none">
<path d="M960 3408 c0 -383 3 -698 8 -700 4 -2 323 -2 709 0 l701 2 7 78 c21
249 148 517 323 684 124 118 227 180 392 235 104 34 298 43 420 19 168 -34
325 -116 457 -239 l63 -59 0 338 0 339 -1540 0 -1540 0 0 -697z"/>
<path d="M960 1855 l0 -745 1540 0 1540 0 0 402 0 401 -57 -55 c-190 -179
-397 -267 -630 -268 -369 -1 -715 241 -875 612 -42 98 -88 262 -88 318 0 19
-3 45 -6 58 l-6 22 -709 0 -709 0 0 -745z"/>
</g>
</svg>
